<svg id="圖層_3" data-name="圖層 3" xmlns="http://www.w3.org/2000/svg" viewBox="0 0 217.5 226.57"><defs><style>.cls-1{fill:#a28c54;}</style></defs><title>banner_runn</title><path class="cls-1" d="M2899.61,481.38l-.31-.23c-.55-.76-1.13-1.56-1.75-2.39s-1.25-1.68-1.89-2.53l-1.92-2.48-1.8-2.29c-.56-.72-1.07-1.35-1.55-1.91l-1.19-1.37-1.59.07c-.07-.19-.13-.38-.19-.58s-.1-.41-.14-.63c.74-.27,1.52-.56,2.32-.88s1.61-.64,2.41-1l2.29-1a2.24,2.24,0,0,1,.29.44,4,4,0,0,1,.24.52l-1.8,1.15,1.56,2.34c.61.92,1.26,1.88,2,2.89s1.39,2,2.1,2.9,1.34,1.71,1.9,2.36l.24.09c0-.72-.07-1.53-.1-2.43s-.07-1.83-.1-2.81-.09-1.95-.17-2.94-.16-1.93-.26-2.81l-1.11-1.38-2,.17a5.26,5.26,0,0,1-.17-.58l-.12-.6c.74-.28,1.51-.57,2.29-.88l2.38-.94q1.18-.48,2.25-1a4.91,4.91,0,0,1,.27.47,4.15,4.15,0,0,1,.23.49l-1.76,1.17q.63,1,1.53,2.4c.6.93,1.25,1.9,1.93,2.9s1.37,2,2.06,2.88,1.3,1.71,1.87,2.36l.23.06c0-.83-.08-1.79-.12-2.89s-.09-2.24-.15-3.43-.15-2.33-.26-3.46a29.3,29.3,0,0,0-.41-3l-2.44.26c-.06-.17-.11-.33-.15-.49a2.72,2.72,0,0,1-.07-.52c1-.36,1.94-.74,2.89-1.14s1.89-.79,2.83-1.2a5.46,5.46,0,0,1,.34.55,5.22,5.22,0,0,1,.25.59l-1.12.93c0,.27,0,.76,0,1.48s0,1.59,0,2.58,0,2.06,0,3.17,0,2.23,0,3.34,0,2.14,0,3.07,0,1.71.08,2.33l.2.62c-.25.16-.55.36-.93.57l-1.13.63a7.33,7.33,0,0,1-1,.46l-.26-.16-2-2.75c-.7-1-1.4-1.91-2.1-2.89s-1.39-1.9-2.06-2.77c0,.74-.06,1.56-.07,2.46s0,1.8,0,2.7,0,1.76,0,2.55,0,1.46.06,2l.2.62c-.24.17-.55.36-.92.57l-1.14.64A8.84,8.84,0,0,1,2899.61,481.38Z" transform="translate(-2832.5 -453.82)"/><path class="cls-1" d="M2926.46,474.09a5,5,0,0,1-5.13-2.34,7.14,7.14,0,0,1-1.06-3.05,8.59,8.59,0,0,1,.05-2.64,9.73,9.73,0,0,1,.64-2.21,11.46,11.46,0,0,1,1.47-1.14,13.19,13.19,0,0,1,1.73-1,11.84,11.84,0,0,1,1.86-.67,3.55,3.55,0,0,1,1.92.31,4.71,4.71,0,0,1,1.78,1.45,6.31,6.31,0,0,1,1.12,2.77l-.42,1.6c-.85.26-1.87.51-3.06.76s-2.45.47-3.8.66a5.19,5.19,0,0,0,1,2.17,4.66,4.66,0,0,0,1.74,1.32,7.7,7.7,0,0,0,1.6-.41c.59-.21,1.17-.44,1.74-.7s1-.48,1.46-.7l.57.83q-.51.5-1.17,1.08a14.82,14.82,0,0,1-1.43,1.13l-1.06.39A8.12,8.12,0,0,1,2926.46,474.09Zm-3.07-6.53c.87-.16,1.67-.34,2.41-.53s1.38-.39,1.94-.59a7.73,7.73,0,0,0-.36-1.51,7,7,0,0,0-.61-1.32,3.22,3.22,0,0,0-.78-.9c-.33.05-.69.12-1.11.21a3.49,3.49,0,0,0-.92.33,7.06,7.06,0,0,0-.51,1.82A10.16,10.16,0,0,0,2923.39,467.56Z" transform="translate(-2832.5 -453.82)"/><path class="cls-1" d="M2937.31,473.06a2.77,2.77,0,0,1-.1-.5,4.47,4.47,0,0,1,0-.52l1.77-.67c.06-.65.12-1.39.16-2.22s.08-1.69.11-2.55,0-1.65.06-2.35c0-1.05,0-2.13,0-3.24s0-2.14,0-3.06a19.82,19.82,0,0,0-.13-2.05l-1.94-.44a3,3,0,0,1,.19-1l4.38-.59,1,.72c0,.31-.06.74-.09,1.31s-.09,1.21-.14,1.93-.09,1.48-.13,2.29-.06,1.61-.1,2.4-.06,1.52-.07,2.19,0,1.18,0,1.86,0,1.36,0,2,0,1.28,0,1.82,0,.94,0,1.19l1.88.58a3.8,3.8,0,0,1,0,.46l-.09.48h-3.33l-1.9,0Z" transform="translate(-2832.5 -453.82)"/><path class="cls-1" d="M2954.42,474.66a5.24,5.24,0,0,1-2.78-1.27,5.09,5.09,0,0,1-1.47-2.44,7.5,7.5,0,0,1-.1-3.22,9,9,0,0,1,.76-2.42,8.39,8.39,0,0,1,1.29-2,13.59,13.59,0,0,1,1.65-.69,11.83,11.83,0,0,1,1.8-.44,11.35,11.35,0,0,1,1.83-.13,12.19,12.19,0,0,1,2.07.55l1.62.61.1.38-1,3.59-1.57-.13-.14-.16-.14-2.76a2.46,2.46,0,0,0-.45-.24l-.48-.17a2.22,2.22,0,0,0-.57-.11,7.68,7.68,0,0,0-.93-.09,4.2,4.2,0,0,0-.76.05,7.43,7.43,0,0,0-1.06,1.67,9.28,9.28,0,0,0-.77,2.6,5.88,5.88,0,0,0,.13,2.87,4.91,4.91,0,0,0,1.32,2.05,6.43,6.43,0,0,0,1.32.06c.54,0,1.11-.07,1.72-.14s1.15-.16,1.64-.26l.34.93q-.63.36-1.41.72a12,12,0,0,1-1.61.64l-1,.07A5.94,5.94,0,0,1,2954.42,474.66Z" transform="translate(-2832.5 -453.82)"/><path class="cls-1" d="M2969.27,478.46a5.39,5.39,0,0,1-2.46-1.66,5.07,5.07,0,0,1-1.14-2.66,7,7,0,0,1,.41-3.29,8.09,8.09,0,0,1,1.24-2.33,10.33,10.33,0,0,1,1.62-1.67,10.72,10.72,0,0,1,1.81-.37,14.14,14.14,0,0,1,2-.1,9.9,9.9,0,0,1,1.87.21,5.44,5.44,0,0,1,2.42,1.63,5.19,5.19,0,0,1,1.17,2.57,6.28,6.28,0,0,1-.34,3.18,9.51,9.51,0,0,1-.78,1.65,10.68,10.68,0,0,1-1.08,1.49,8.14,8.14,0,0,1-1.26,1.18,9.11,9.11,0,0,1-1.7.35,11.71,11.71,0,0,1-1.88.06A9.47,9.47,0,0,1,2969.27,478.46Zm.91-1.45a4.12,4.12,0,0,0,.64.18,6,6,0,0,0,.61.1,3,3,0,0,0,.5,0,4.81,4.81,0,0,0,.92-.82,7.28,7.28,0,0,0,.91-1.27,9.08,9.08,0,0,0,.74-1.64,6.77,6.77,0,0,0,.43-3.24,3.54,3.54,0,0,0-1.18-2.26,7.8,7.8,0,0,0-1-.29,4.31,4.31,0,0,0-.88-.1,6.16,6.16,0,0,0-1.37,1.41,8.94,8.94,0,0,0-1.21,2.35,6.61,6.61,0,0,0-.4,3.27A3.63,3.63,0,0,0,2970.18,477Z" transform="translate(-2832.5 -453.82)"/><path class="cls-1" d="M2980.21,482.1a2.81,2.81,0,0,1,.16-.49,2.94,2.94,0,0,1,.25-.46l1.88.37c.42-.52.84-1.07,1.25-1.64s.75-1.08,1-1.52.57-.92.86-1.44l.87-1.55c.29-.52.54-1,.75-1.42l-1.34-1.21a1.7,1.7,0,0,1,.14-.39,1.74,1.74,0,0,1,.23-.4c.67.2,1.36.42,2.07.69s1.39.55,2,.86l.09,1-2,3,.24.28c.63-.45,1.25-.89,1.85-1.3a14.39,14.39,0,0,1,2-1.16,14,14,0,0,1,1.45.62c.41.21.85.47,1.32.77a2.37,2.37,0,0,1,.95,1.32,4.09,4.09,0,0,1,.24,1.63c-.24.33-.48.68-.72,1l-.73,1,.24.28c.56-.41,1.17-.84,1.82-1.29a18.44,18.44,0,0,1,2-1.18,13.24,13.24,0,0,1,1.46.63,14.79,14.79,0,0,1,1.3.76,2.09,2.09,0,0,1,.76.87,4.44,4.44,0,0,1,.4,1.18,3.86,3.86,0,0,1,.06,1.1c-.39.67-.77,1.33-1.16,2l-1.16,2c-.38.67-.77,1.33-1.16,2s-.77,1.31-1.15,2l1.15,1.35a4.28,4.28,0,0,1-.26.38,2.8,2.8,0,0,1-.32.38c-.27-.18-.65-.42-1.13-.71l-1.54-1-1.55-1c-.49-.3-.88-.54-1.18-.71a2.74,2.74,0,0,1,.17-.48,3,3,0,0,1,.25-.47l1.72.27,1.17-1.75,1.06-1.63.65-1c.21-.35.42-.68.61-1a10,10,0,0,0,.53-.94c.15-.31.29-.6.4-.87a8.71,8.71,0,0,0-.66-.76c-.25-.25-.52-.51-.81-.76-.31.12-.73.31-1.24.57s-1.07.57-1.65.93-1.16.76-1.74,1.18l-2.23,3.83,1.09,1.24c-.09.12-.19.24-.28.37a3.68,3.68,0,0,1-.32.37l-1.1-.69c-.47-.29-1-.6-1.51-.94l-1.53-.94c-.48-.3-.86-.53-1.15-.69a3.12,3.12,0,0,1,.18-.48l.26-.46,1.7.26,1.18-1.76c.37-.57.73-1.1,1.08-1.61.22-.35.44-.69.65-1s.41-.68.6-1,.36-.64.52-.95a8.28,8.28,0,0,0,.41-.86,8.24,8.24,0,0,0-.65-.75c-.26-.26-.53-.52-.84-.78a9.3,9.3,0,0,0-1.26.57c-.52.27-1.08.6-1.68,1s-1.21.78-1.81,1.21l-2.18,3.7,1.09,1.25a2.65,2.65,0,0,1-.27.37,3.8,3.8,0,0,1-.33.37l-1.14-.72-1.56-1-1.56-1Z" transform="translate(-2832.5 -453.82)"/><path class="cls-1" d="M3005.71,501.52a5.12,5.12,0,0,1-1.48-2.63,5.25,5.25,0,0,1,.24-2.87,7.13,7.13,0,0,1,1.79-2.68,8.51,8.51,0,0,1,2.12-1.56,10.82,10.82,0,0,1,2.16-.83,12.14,12.14,0,0,1,1.8.49,11.5,11.5,0,0,1,1.8.8,11.78,11.78,0,0,1,1.66,1.07,3.45,3.45,0,0,1,.91,1.72,4.72,4.72,0,0,1-.07,2.29,6.35,6.35,0,0,1-1.53,2.57l-1.53.64c-.72-.53-1.54-1.19-2.45-2s-1.86-1.67-2.83-2.63a5.17,5.17,0,0,0-1.13,2.1,4.72,4.72,0,0,0,0,2.18,7.28,7.28,0,0,0,1.3,1c.52.35,1.06.67,1.6,1s1,.54,1.44.73l-.31,1c-.47-.07-1-.16-1.57-.28a14.74,14.74,0,0,1-1.76-.46c-.23-.13-.55-.33-.95-.6A7,7,0,0,1,3005.71,501.52Zm3.34-6.38c.65.59,1.28,1.12,1.88,1.59s1.15.87,1.64,1.19a7,7,0,0,0,1-1.19,7.3,7.3,0,0,0,.68-1.29,3,3,0,0,0,.24-1.17c-.23-.23-.51-.48-.83-.75a3.74,3.74,0,0,0-.82-.54,7,7,0,0,0-1.75.7A9.89,9.89,0,0,0,3009.05,495.14Z" transform="translate(-2832.5 -453.82)"/><path class="cls-1" d="M3019.6,519.19a2,2,0,0,1,.44-.41,5.8,5.8,0,0,1,.59-.36l1.65,2c.58-.25,1.2-.53,1.85-.85l2-1,2.12-1.07,2.33-1.22,2.25-1.21q1.1-.59,2-1.11c-.27-.46-.56-.95-.87-1.45s-.62-1-.93-1.44l-4,.75c-.13-.25-.26-.52-.39-.79s-.24-.54-.34-.81l.07-.1,5-2.29h.14c.51.93,1,1.93,1.59,3s1.12,2.12,1.69,3.18c.39.72.82,1.5,1.3,2.36s1,1.72,1.5,2.59,1,1.71,1.44,2.49l-.12.47-4.87,2.45-.2,0-.49-.72c-.16-.24-.31-.49-.46-.73l3.3-2.87c-.25-.46-.51-1-.8-1.51s-.56-1.08-.84-1.6l-3.47,1.81c-1.18.63-2.34,1.25-3.49,1.89l-1.34.72-1.3.73-1.3.74-1.32.75.58,2.91a4.25,4.25,0,0,1-1,.38c-.71-1.32-1.42-2.62-2.15-3.91S3020.34,520.42,3019.6,519.19Z" transform="translate(-2832.5 -453.82)"/><path class="cls-1" d="M3027.18,534.35a3.18,3.18,0,0,1,.44-.26l.5-.19,1.16,1.49c.55-.1,1.17-.25,1.85-.43s1.37-.36,2.07-.56l2-.56,1.82-.55,2.09-.64c.72-.22,1.41-.43,2.08-.65l1.77-.58c.51-.18.9-.33,1.16-.44l-.15-2.15a2.36,2.36,0,0,1,.53-.1l.5,0,1.81,3.86-.42,1.28-7.66,1.88-2.23.48v.37c.28,0,.67,0,1.17.07s1,.12,1.63.22,1.14.21,1.69.33c.28.54.51,1,.68,1.43s.33.9.49,1.44a2,2,0,0,1,0,1.15,4,4,0,0,1-.48,1.15,3.49,3.49,0,0,1-.67.87c-.73.26-1.46.5-2.18.74l-2.18.72-2.17.74-2.18.72V548l-.45.11a1.57,1.57,0,0,1-.49,0c-.09-.31-.22-.74-.39-1.28s-.34-1.12-.53-1.73l-.54-1.74c-.17-.55-.31-1-.43-1.34a3.21,3.21,0,0,1,.45-.24,3.67,3.67,0,0,1,.5-.17l1.1,1.36,4.36-1.25,1-.28c.33-.09.66-.2,1-.31s.65-.24,1-.37.59-.26.83-.38a8.33,8.33,0,0,0,0-1c0-.36-.06-.73-.11-1.11a10.14,10.14,0,0,0-1.33-.4c-.56-.13-1.2-.26-1.91-.38s-1.43-.21-2.16-.26l-4,1.36v1.74l-.45.12a3.46,3.46,0,0,1-.48.07c-.1-.33-.23-.77-.4-1.32s-.35-1.14-.55-1.77l-.54-1.78C3027.43,535.11,3027.29,534.67,3027.18,534.35Z" transform="translate(-2832.5 -453.82)"/><path class="cls-1" d="M3032.23,558.27a5.19,5.19,0,0,1,.51-3,5.27,5.27,0,0,1,2-2.08,7.12,7.12,0,0,1,3.08-1,8.45,8.45,0,0,1,2.63.12,10,10,0,0,1,2.2.71,12.63,12.63,0,0,1,1.1,1.5,13.88,13.88,0,0,1,.9,1.76,13.33,13.33,0,0,1,.62,1.88,3.58,3.58,0,0,1-.38,1.91,4.57,4.57,0,0,1-1.5,1.73,6.36,6.36,0,0,1-2.8,1l-1.59-.47c-.23-.87-.45-1.89-.66-3.08s-.4-2.47-.55-3.83a5.33,5.33,0,0,0-2.2.93,4.67,4.67,0,0,0-1.37,1.7,8.28,8.28,0,0,0,.36,1.62c.19.59.41,1.18.64,1.75s.46,1.07.66,1.48l-.84.55q-.48-.52-1.05-1.2a15.06,15.06,0,0,1-1.08-1.47c-.1-.25-.22-.6-.36-1.07A7,7,0,0,1,3032.23,558.27Zm6.61-2.87c.14.87.29,1.68.47,2.42s.34,1.4.52,2a7.73,7.73,0,0,0,1.52-.31,7.12,7.12,0,0,0,1.34-.58,3.12,3.12,0,0,0,.92-.75,9.06,9.06,0,0,0-.18-1.11,3.5,3.5,0,0,0-.29-.94,7.42,7.42,0,0,0-1.8-.55A10,10,0,0,0,3038.84,555.4Z" transform="translate(-2832.5 -453.82)"/><path class="cls-1" d="M3032.87,577.8l.64,0a4.55,4.55,0,0,1,.63.09l0,2c.63.22,1.27.43,1.91.63s1.28.41,1.94.6,1.3.38,1.95.55l1.92.49,2.16.56,2.12.52,1.84.44,1-1.9a4.84,4.84,0,0,1,.49.14,3.41,3.41,0,0,1,.48.22c-.25,1.11-.48,2.2-.68,3.28s-.4,2.18-.58,3.3l-2.4.13c-.8.05-1.58.1-2.35.17l-2.3.18-2.26.17-2.17.19-2.11.2.1.16c.66.43,1.35.86,2.08,1.3l2.22,1.31,2.21,1.29,2,1.18,1.7.94c.5.27.9.48,1.2.62-.22,1-.43,2.09-.61,3.15s-.36,2.1-.5,3.14c-.22,0-.44,0-.65-.06a2.8,2.8,0,0,1-.64-.13l-.11-2.05-2.15-.46-2.66-.54c-.94-.19-1.87-.38-2.81-.55l-2-.35c-.61-.12-1.18-.22-1.72-.3l-1.45-.23-1.17-.15-1.19,2a4.13,4.13,0,0,1-.5-.15l-.49-.21c.25-1.2.5-2.4.72-3.6s.46-2.41.68-3.62l.64,0a3.42,3.42,0,0,1,.63.09v1.77l1.45.32,2.29.51,2.67.6,2.67.57,2.25.46c.64.13,1.11.21,1.4.24l0-.16-11.86-7.12-.82-.19a8.52,8.52,0,0,1-.08-.92c0-.38,0-.76,0-1.12s0-.67,0-.91l.27-.08,15.1-1.24.05-.18c-.91-.25-1.86-.49-2.85-.74l-3.07-.74c-1.05-.26-2.11-.5-3.17-.75l-3.15-.69-1.28,1.92-.49-.14a3.31,3.31,0,0,1-.48-.22c.22-1,.42-2,.61-3S3032.71,578.81,3032.87,577.8Z" transform="translate(-2832.5 -453.82)"/><path class="cls-1" d="M3023.45,609a7.89,7.89,0,0,1,.4-1.37,10,10,0,0,1,.78-1.57,6.61,6.61,0,0,1,1-.5,4.1,4.1,0,0,1,1.26-.26,3.07,3.07,0,0,1,1.25.19,3.52,3.52,0,0,1,.74.51,4.34,4.34,0,0,1,.7.72,5.6,5.6,0,0,1,.53.77,3,3,0,0,1,.3.66,8.37,8.37,0,0,1-.26,1.32c-.15.53-.3,1.08-.47,1.64s-.33,1.06-.49,1.51-.29.79-.38,1l3.27,1.61a4.58,4.58,0,0,0,.87-.82,5.52,5.52,0,0,0,.76-1.14,1.41,1.41,0,0,0,.19-.39l.15-.41-2.26-1.66,1-1.77,2.79,1,.23.38c-.1.6-.26,1.37-.51,2.3a15.07,15.07,0,0,1-1.12,2.95,4.16,4.16,0,0,1-.89,1.24,3.65,3.65,0,0,1-1,.69,4.44,4.44,0,0,1-1,.31,4.16,4.16,0,0,1-.81.06l-1.31-.77-1.35-.76-1.05-.54c-.72-.36-1.35-.65-1.88-.86s-1-.37-1.33-.49l-.84-.27-.85,1.3-.8-.27c.13-.62.27-1.29.43-2s.36-1.45.6-2.23l1-.22,1.68,1,.07-.15c-.12-.28-.27-.58-.44-.9l-.49-1C3023.71,609.53,3023.57,609.23,3023.45,609Zm2.74-.72a1.25,1.25,0,0,0-.29.25,4.26,4.26,0,0,0-.34.37,2,2,0,0,0-.3.46,1.74,1.74,0,0,0,.09.58c.07.28.16.58.26.9s.21.62.31.9a3.08,3.08,0,0,0,.24.56l1.62.8a10.88,10.88,0,0,0,.39-1.22c.11-.43.2-.86.28-1.29s.13-.87.16-1.3l-.19-.14a1.18,1.18,0,0,0-.19-.1l-.18-.09a8.19,8.19,0,0,0-1-.44C3026.71,608.37,3026.44,608.29,3026.19,608.23Z" transform="translate(-2832.5 -453.82)"/><path class="cls-1" d="M3011,618.77a4.89,4.89,0,0,1,.82-.85,4.78,4.78,0,0,1,1.23-.78,3,3,0,0,1,3.23.41c0,.36,0,.73,0,1.12s0,.77,0,1.16-.06.77-.11,1.13a3.44,3.44,0,0,1,1.83-.54,3.12,3.12,0,0,1,1.6.46l-.18,2.87a4.44,4.44,0,0,1,1.66-.57,4.31,4.31,0,0,1,1.61.11,3.92,3.92,0,0,1,1.37.64,5.55,5.55,0,0,1,1.19,1.23,4.52,4.52,0,0,1,.66,1.26,8.16,8.16,0,0,1-.06,1.37,10.91,10.91,0,0,1-.29,1.47,5.26,5.26,0,0,1-.48,1.26c-.13.21-.3.44-.48.7a8,8,0,0,1-.71.8,9.4,9.4,0,0,1-.74.66c-.26.21-.52.41-.79.59l-1.2,2.84-.77.13a4.68,4.68,0,0,1-.63-.56c-.2-.22-.38-.45-.56-.69a4.14,4.14,0,0,1,.38-.45c.17-.17.34-.34.53-.5s.37-.33.56-.48l-.28,0-.18,0a3.65,3.65,0,0,1-1-.32,5.83,5.83,0,0,1-1-.58,5.39,5.39,0,0,1-1.19-1.24,4.22,4.22,0,0,1-.65-1.41,5.49,5.49,0,0,1,.12-1.47,9.94,9.94,0,0,1,.48-1.62,9.49,9.49,0,0,1,.73-1.5,5.65,5.65,0,0,1,.4-.48c.14-.17.26-.3.36-.41a3.78,3.78,0,0,0-.21-.68,1.62,1.62,0,0,0-.43-.63,5.51,5.51,0,0,0-.71.58c-.26.23-.52.49-.78.77s-.52.56-.78.86l-.74.89a21,21,0,0,1-1.57,1.66,4.68,4.68,0,0,1-1.55,1,1.44,1.44,0,0,1-1.46-.25,4.86,4.86,0,0,1-1.32-1.51,5.38,5.38,0,0,1-.67-1.92,8,8,0,0,1,.4-2.12,12.76,12.76,0,0,1,1-2.24A17.74,17.74,0,0,1,3011,618.77Zm.48,1.34a8,8,0,0,0-.61,1c-.2.36-.38.72-.54,1.09a9.92,9.92,0,0,0-.38,1,2.47,2.47,0,0,0-.15.51,2.83,2.83,0,0,0,.29.59,7.29,7.29,0,0,0,.54.76,4.87,4.87,0,0,0,.7.67c.23-.22.47-.45.72-.72l.78-.84c.27-.31.54-.61.82-.91s.56-.58.83-.84.55-.52.81-.75c-.06-.22-.13-.46-.21-.71a6.27,6.27,0,0,0-.26-.67,1.27,1.27,0,0,0-.23-.35,2,2,0,0,0-.79-.2,6.15,6.15,0,0,0-1,0,4.1,4.1,0,0,0-.87.16A1,1,0,0,0,3011.43,620.11Zm7.21,6.14a4.23,4.23,0,0,0-.41.68,2.75,2.75,0,0,0-.22.62,2.83,2.83,0,0,0,.54,1.11,5,5,0,0,0,1.11,1.1,5.87,5.87,0,0,0,1.31.73,4.16,4.16,0,0,0,1.35.27,3,3,0,0,0,1.24-.22,5.52,5.52,0,0,0,.44-.7c.13-.25.22-.47.29-.64a5.31,5.31,0,0,0-.68-1.2,5.76,5.76,0,0,0-1.19-1.17,4.28,4.28,0,0,0-1.89-.83A3.24,3.24,0,0,0,3018.64,626.25Z" transform="translate(-2832.5 -453.82)"/><path class="cls-1" d="M3007.17,632.33a3,3,0,0,1,.44.29,3.09,3.09,0,0,1,.38.35l-.75,1.73q.35.42.78.9l.87,1c.29.33.56.62.8.86.39.4.8.79,1.22,1.17s.86.77,1.32,1.16.94.77,1.44,1.14l1.38-.83a4.23,4.23,0,0,1,.34.4,4,4,0,0,1,.28.46l-2.74,3.56-.75.09-.51-.82c-.38-.46-.77-.9-1.16-1.32s-.8-.85-1.23-1.29l-1.43-1.4c-.51-.48-1-1-1.55-1.43l-1.55-1.35-1.67.89-.31-.33a2,2,0,0,1-.29-.4l1-1,1.32-1.34,1.32-1.35C3006.56,633,3006.91,632.62,3007.17,632.33Zm9.46,11.84.73.52c.25.19.49.39.73.6l.6.57c0,.1-.06.23-.11.39s-.1.31-.15.46a2.44,2.44,0,0,1-.17.33c-.1.13-.23.28-.4.46l-.57.58a5,5,0,0,1-.62.54,9.49,9.49,0,0,1-.76-.69c-.25-.26-.48-.5-.68-.73a2.09,2.09,0,0,1-.42-.61.88.88,0,0,1,0-.24,3.25,3.25,0,0,1,0-.44c0-.15,0-.23,0-.24a10.55,10.55,0,0,1,.89-.77A12.19,12.19,0,0,1,3016.63,644.17Z" transform="translate(-2832.5 -453.82)"/><path class="cls-1" d="M2994.49,643.23a5.24,5.24,0,0,1,2.84-1.12,5,5,0,0,1,2.78.64,7.41,7.41,0,0,1,2.39,2.15,9.25,9.25,0,0,1,1.23,2.22,9,9,0,0,1,.56,2.34,12.58,12.58,0,0,1-.64,1.66,11.68,11.68,0,0,1-.93,1.6,10.19,10.19,0,0,1-1.17,1.41,11.18,11.18,0,0,1-1.83,1.12l-1.57.75-.34-.19-1.93-3.17,1.18-1h.21l2.09,1.81a2.46,2.46,0,0,0,.48-.16l.46-.22a2.62,2.62,0,0,0,.47-.34,6.12,6.12,0,0,0,.71-.61,4.45,4.45,0,0,0,.49-.58,7.53,7.53,0,0,0-.47-1.93,9.88,9.88,0,0,0-1.34-2.35,6.06,6.06,0,0,0-2.16-1.89,4.94,4.94,0,0,0-2.4-.47,6.94,6.94,0,0,0-.95.91c-.36.41-.72.85-1.09,1.34s-.68.94-.95,1.36l-.91-.4c.12-.47.27-1,.45-1.51a13.82,13.82,0,0,1,.66-1.6c.13-.17.34-.42.62-.75A6.31,6.31,0,0,1,2994.49,643.23Z" transform="translate(-2832.5 -453.82)"/><path class="cls-1" d="M2971.66,655.68a6.31,6.31,0,0,1,3.06-.38,7.23,7.23,0,0,1,2.82,1,8.75,8.75,0,0,1,2.35,2,9.65,9.65,0,0,1,1.59,2.82,10.75,10.75,0,0,1,.52,1.92,10.89,10.89,0,0,1,.14,1.88,11.49,11.49,0,0,1-.17,1.86,11,11,0,0,1-1.31,2.57,12.48,12.48,0,0,1-2,2.25,10.3,10.3,0,0,1-2.4,1.61,6.26,6.26,0,0,1-3,.35,7.74,7.74,0,0,1-2.81-1,8.77,8.77,0,0,1-3.89-4.64,11,11,0,0,1-.5-1.83,12.37,12.37,0,0,1-.22-2,10.1,10.1,0,0,1,.15-2.07,9.45,9.45,0,0,1,1.21-2.53,11.88,11.88,0,0,1,1.95-2.24A10.16,10.16,0,0,1,2971.66,655.68Zm.27,2.08c-.34.13-.67.27-1,.42a6.93,6.93,0,0,0-.89.52l-.62.44a8.54,8.54,0,0,0-.32,2.88,12,12,0,0,0,.8,3.7,10.86,10.86,0,0,0,1.06,2.16,8.19,8.19,0,0,0,1.39,1.63,5.6,5.6,0,0,0,1.68,1.08,7.16,7.16,0,0,0,1.89.52,13.38,13.38,0,0,0,1.51-.67,6.86,6.86,0,0,0,1.17-.74,8.17,8.17,0,0,0,.32-2.87,12.35,12.35,0,0,0-.8-3.71,10.55,10.55,0,0,0-1.08-2.18,7.33,7.33,0,0,0-1.41-1.64,6.92,6.92,0,0,0-1.73-1.07A6.53,6.53,0,0,0,2971.93,657.76Z" transform="translate(-2832.5 -453.82)"/><path class="cls-1" d="M2958.09,659.85a2.35,2.35,0,0,1,.19.51c0,.2.1.38.13.56l-1.64,1,1.52,8.94h1.59l.31.25.08.94-1.71.4c.12.73.23,1.48.32,2.25a5.23,5.23,0,0,1-.09,2,11.74,11.74,0,0,1-1.13,1.52,6.37,6.37,0,0,1-1.47,1.22,5,5,0,0,1-1.78.66l-.74.11c-.32,0-.65.08-1,.11a5.93,5.93,0,0,1-.82,0l-.44-.5.23-2.34.91-.29.8,1a10.93,10.93,0,0,0,1.15.13,7.36,7.36,0,0,0,1.15,0,4,4,0,0,0,.31-1.16,5.91,5.91,0,0,0,0-1.33c0-.47-.1-.95-.19-1.45l-.25-1.49-1,.18-1,.2-1,.21-.44-.2v-1.48l3.15-.48-1.78-9-2.68-.13q0-.21-.06-.45a2,2,0,0,1,0-.49l1.66-.3,2-.37,2-.39C2957,660.1,2957.56,660,2958.09,659.85Z" transform="translate(-2832.5 -453.82)"/><path class="cls-1" d="M2933.5,661.75a2.53,2.53,0,0,1,.09.6q0,.33,0,.69l-2.58.26c-.11.62-.22,1.29-.32,2s-.19,1.48-.29,2.27-.19,1.57-.28,2.36-.2,1.75-.29,2.61-.17,1.72-.25,2.54-.14,1.59-.19,2.29c.53,0,1.1.06,1.68.08s1.16,0,1.72,0l1.59-3.72a8.62,8.62,0,0,1,.87.11c.29,0,.58.1.86.16l.05.12-.86,5.39-.06.13-3.38-.34-3.58-.37c-.81-.08-1.7-.16-2.68-.23s-2-.15-3-.2-2-.12-2.87-.19l-.32-.36.67-5.41.07-.19h.87l.87,0,.55,4.34,1.69.18,1.8.19c.14-1.27.28-2.56.42-3.89s.27-2.64.38-4c.05-.52.1-1,.15-1.52s.08-1,.11-1.48.07-1,.11-1.49.08-1,.11-1.51l-2.74-1.14a3.88,3.88,0,0,1,.24-1q2.23.23,4.44.39C2930.6,661.6,2932.06,661.68,2933.5,661.75Z" transform="translate(-2832.5 -453.82)"/><path class="cls-1" d="M2916.69,659.62a4.36,4.36,0,0,1,0,.51c0,.17-.07.34-.12.52l-1.89.14c-.22.52-.44,1.11-.67,1.77l-.68,2c-.23.69-.43,1.33-.62,1.94s-.36,1.13-.56,1.82-.42,1.37-.63,2.09-.42,1.41-.62,2.09-.36,1.27-.49,1.79-.23.93-.28,1.22l1.87,1.07a3.06,3.06,0,0,1-.22.49,4.31,4.31,0,0,1-.25.44l-4.21-.65-.83-1,2.7-7.42.84-2.11-.3-.21q-.25.35-.72.93t-1.08,1.23c-.41.43-.82.84-1.22,1.22a13.31,13.31,0,0,1-1.57-.23,14.05,14.05,0,0,1-1.46-.39,2.06,2.06,0,0,1-1-.64,4.28,4.28,0,0,1-.69-1,3.8,3.8,0,0,1-.36-1l.6-2.22c.2-.73.41-1.47.62-2.21s.4-1.49.59-2.22.4-1.47.62-2.21l-1.53-1c.05-.14.1-.28.16-.43a1.69,1.69,0,0,1,.23-.44l1.28.39,1.73.52,1.75.52,1.35.38a2.92,2.92,0,0,1,0,.51,4.84,4.84,0,0,1-.14.51l-1.74.16-1.39,4.32c-.1.31-.2.62-.3.95s-.2.66-.29,1-.16.67-.23,1-.11.63-.14.91a7,7,0,0,0,.83.55c.31.19.64.36,1,.53a10.91,10.91,0,0,0,1.07-.88q.64-.6,1.38-1.38a18.58,18.58,0,0,0,1.41-1.65l1.13-4.12-1.45-1c0-.13.09-.28.15-.43a3.55,3.55,0,0,1,.21-.44l1.32.4,1.77.53,1.78.53C2915.91,659.41,2916.36,659.53,2916.69,659.62Z" transform="translate(-2832.5 -453.82)"/><path class="cls-1" d="M2895.31,651.29a4,4,0,0,1,.57,1,5.13,5.13,0,0,1,.35,1.29,2.37,2.37,0,0,1-.09,1.15l-.76,1.52-1,1.92-1,2.06-1,1.93,1.26,1.25a3.7,3.7,0,0,1-.28.44,2.37,2.37,0,0,1-.34.39l-3.58-1.67-.58-1,.44-.69c.38-.61.75-1.22,1.1-1.82s.69-1.19,1-1.76l.87-1.6c.27-.5.5-1,.7-1.4s.37-.83.5-1.19a4.33,4.33,0,0,0-.66-.69,4.09,4.09,0,0,0-.64-.47,2.89,2.89,0,0,0-1,.19,11.71,11.71,0,0,0-1.22.48c-.45.19-.92.39-1.43.58-.34.62-.66,1.22-1,1.81s-.62,1.18-.94,1.78-.63,1.2-.93,1.81l1.23,1.24c-.09.16-.18.31-.28.46a3.62,3.62,0,0,1-.36.42l-3.64-1.9-.51-.92.62-.84c.55-.88,1.1-1.78,1.63-2.68s1-1.79,1.5-2.68.89-1.77,1.25-2.64l-1.42-1a2.54,2.54,0,0,1,.13-.39,3.39,3.39,0,0,1,.18-.39c.62.14,1.28.3,2,.48a20.57,20.57,0,0,1,2.14.71l.19,1-1.19,1.87.05.24c.53-.32,1-.61,1.54-.86l1.55-.76c.47.16.94.33,1.41.52A13.21,13.21,0,0,1,2895.31,651.29Z" transform="translate(-2832.5 -453.82)"/><path class="cls-1" d="M2882.63,643.69a2.61,2.61,0,0,1-.24.47c-.1.15-.21.29-.32.43l-1.8-.56-1.23,1.34c-.44.49-.86,1-1.23,1.43s-.68.87-1,1.38l-1.09,1.53q-.55.75-.93,1.35l1.2,1.35a1.66,1.66,0,0,1-.2.4l-.26.34c-.64-.26-1.3-.57-2-.91s-1.32-.7-1.93-1.08v-1l2.46-2.52-.2-.31c-.65.4-1.29.77-1.93,1.1s-1.29.65-2,1a10,10,0,0,1-1-.55,11.48,11.48,0,0,1-1.81-1.45l.26-.66,2.08-1.58.64.07.48.68c.16.24.33.47.5.69a4.5,4.5,0,0,0,.55.6c.31-.1.65-.22,1-.38a12.46,12.46,0,0,0,1.14-.59c.38-.24.76-.45,1.14-.66l2.78-3.73-1.53-2a1.54,1.54,0,0,1,.29-.35l.38-.31,1.22,1,1.61,1.26,1.62,1.26Z" transform="translate(-2832.5 -453.82)"/><path class="cls-1" d="M2868.83,630.87a10.37,10.37,0,0,1,.79,1c.28.39.55.79.8,1.2a12,12,0,0,1,.66,1.17l0,.34-2.19,2.13-.15,0-1-.81,1-2.27c-.13-.31-.27-.6-.41-.88a5.41,5.41,0,0,0-.55-.83,8.36,8.36,0,0,0-.84-.92,7.94,7.94,0,0,0-.81-.65,4.23,4.23,0,0,0-.71.32,3.29,3.29,0,0,0-.65.52,4.62,4.62,0,0,0,.09,1.26c.1.45.22.92.37,1.41l.45,1.46a18,18,0,0,1,.4,1.78,4.41,4.41,0,0,1,0,1.62,2.52,2.52,0,0,1-.79,1.34,3.27,3.27,0,0,1-.75.5,4.7,4.7,0,0,1-.91.33,3.35,3.35,0,0,1-.93.1,5.85,5.85,0,0,1-2-.65,8.18,8.18,0,0,1-1.9-1.39,9.84,9.84,0,0,1-.73-.92c-.23-.34-.45-.68-.65-1a5.09,5.09,0,0,1-.45-1l.11-.32,2.55-2,.87.8,0,.27-1,1.88a3.23,3.23,0,0,0,.39,1,7.66,7.66,0,0,0,.61.88,7,7,0,0,0,.71.73,5.25,5.25,0,0,0,.78.58l.4-.24a1.22,1.22,0,0,0,.35-.3,2.74,2.74,0,0,0,.42-1,2.89,2.89,0,0,0,0-1.33c-.18-.68-.4-1.35-.64-2s-.44-1.28-.6-1.88a5.06,5.06,0,0,1-.17-1.63,1.89,1.89,0,0,1,.66-1.28,5.5,5.5,0,0,1,1.11-.79,3.33,3.33,0,0,1,1.3-.38,4.71,4.71,0,0,1,2.17.52A7.89,7.89,0,0,1,2868.83,630.87Z" transform="translate(-2832.5 -453.82)"/><path class="cls-1" d="M2860.57,620.49a6,6,0,0,1,.12,1.25,4.26,4.26,0,0,1-.31,1.46,5.41,5.41,0,0,1-1,1.57,9.57,9.57,0,0,1-2,1.64,7.44,7.44,0,0,1-2.49,1,8.22,8.22,0,0,1-2.57.13,9.69,9.69,0,0,1-2.49-.63,3.85,3.85,0,0,1-.56-.51c-.17-.19-.35-.38-.52-.59a6.21,6.21,0,0,1-.47-.64c-.16-.3-.34-.63-.53-1a9.77,9.77,0,0,1-.52-1.18l-3.93,2.58.73,2a4,4,0,0,1-.46.24,4.65,4.65,0,0,1-.49.17l-3-3.35.09-1.33c.27-.13.64-.32,1.1-.57l1.58-.85,1.85-1c.65-.37,1.31-.75,2-1.14s1.29-.78,1.9-1.17l1.1-.71,1.28-.86,1.32-.89c.44-.3.84-.58,1.2-.85s.68-.49.95-.67l-.47-1.66.69-.53c.4.37.85.82,1.36,1.36a11.82,11.82,0,0,1,1.45,1.88l-.31.93-2.71,1.52.06.35a11.81,11.81,0,0,1,1.18-.18l1.63-.16a11.78,11.78,0,0,1,1.35-.06,9.93,9.93,0,0,1,1.05,1.18C2860,619.61,2860.29,620.05,2860.57,620.49Zm-2.92-1a6.05,6.05,0,0,0-1.3-.14c-.59,0-1.21,0-1.89,0s-1.25.08-1.73.15l-3.82,2.41a6.3,6.3,0,0,0,.22,1.1c.1.37.22.72.35,1.07s.27.66.41.95a3.39,3.39,0,0,0,.66.46,3.29,3.29,0,0,0,.76.31,10.38,10.38,0,0,0,1.52-.62,14.64,14.64,0,0,0,1.64-.9,16.27,16.27,0,0,0,2-1.47,13.23,13.23,0,0,0,1.5-1.5,4.84,4.84,0,0,0-.05-.93A3.84,3.84,0,0,0,2857.65,619.46Z" transform="translate(-2832.5 -453.82)"/><path class="cls-1" d="M2850.82,602.82a8.24,8.24,0,0,1,.75,1.22,9.22,9.22,0,0,1,.64,1.63,6.43,6.43,0,0,1-.31,1.1,4,4,0,0,1-.65,1.11,2.85,2.85,0,0,1-1,.79,3.08,3.08,0,0,1-.87.22,4.76,4.76,0,0,1-1,0,6.51,6.51,0,0,1-.94-.12,2.68,2.68,0,0,1-.68-.23,7.52,7.52,0,0,1-.81-1.07q-.45-.69-.9-1.44c-.31-.5-.57-1-.8-1.38s-.39-.74-.5-1l-3.38,1.35a4.45,4.45,0,0,0,0,1.2,5.77,5.77,0,0,0,.34,1.33,2,2,0,0,0,.16.4l.21.38,2.74-.56.64,1.95-2.62,1.39-.44-.08c-.38-.47-.84-1.11-1.37-1.91a16.13,16.13,0,0,1-1.44-2.82,4.33,4.33,0,0,1-.33-1.48,4,4,0,0,1,.18-1.23,4.15,4.15,0,0,1,.46-1,5.14,5.14,0,0,1,.5-.65l1.44-.46c.52-.16,1-.33,1.47-.49l1.1-.41c.76-.3,1.39-.58,1.9-.83s.93-.47,1.26-.66l.75-.45-.39-1.5.74-.41,1.19,1.65c.42.59.84,1.24,1.25,1.94l-.47.86-1.9.55.06.15c.29.1.61.19,1,.28l1.05.28C2850.21,602.63,2850.53,602.72,2850.82,602.82Zm-1.29,2.52a2.24,2.24,0,0,0,0-.38c0-.15,0-.32-.06-.5a1.88,1.88,0,0,0-.14-.53,1.53,1.53,0,0,0-.49-.33c-.25-.13-.54-.26-.84-.4s-.6-.27-.88-.38a3,3,0,0,0-.57-.19l-1.68.67a11.2,11.2,0,0,0,.64,1.1q.38.55.78,1.08c.27.34.56.67.85,1l.23-.05.21-.07.19-.07a7.43,7.43,0,0,0,1-.48C2849.07,605.63,2849.31,605.48,2849.53,605.34Z" transform="translate(-2832.5 -453.82)"/><path class="cls-1" d="M2852.41,590.26l-1.94,1-.29-.1c0-.21-.12-.5-.21-.85s-.2-.73-.32-1.12a9,9,0,0,0-.37-1,6.18,6.18,0,0,0-.85-.52,5.66,5.66,0,0,0-1.14-.44,10.59,10.59,0,0,0-1.48-.32l-.09,1.45-9.11,5.77-.21,1.61-.49,0a1.58,1.58,0,0,1-.48-.06l-1.13-3.84.7-1.11,8.29-3.91.08-.27c-.89-.11-1.78-.2-2.68-.27s-1.74-.12-2.53-.16-1.49-.06-2.1-.07-1,0-1.34,0l-.13,2a2.05,2.05,0,0,1-.48.1,3.77,3.77,0,0,1-.47,0c-.15-.76-.33-1.56-.53-2.42s-.4-1.68-.61-2.5a2.77,2.77,0,0,1,.46-.22,3.14,3.14,0,0,1,.49-.15l1.09,1.24c.77.09,1.62.2,2.56.3s1.9.22,2.92.32l3.12.31c1.6.14,3,.32,4.3.52a28.46,28.46,0,0,1,3.21.67,4.64,4.64,0,0,1,.88,1.11c.24.43.46.82.65,1.19,0,.23.1.5.15.82A3.67,3.67,0,0,1,2852.41,590.26Z" transform="translate(-2832.5 -453.82)"/><polygon class="cls-1" points="17.86 114.93 11.19 115.4 12.35 121.98 8.61 116.44 3.48 120.74 6.41 114.72 0.13 112.44 6.8 111.96 5.64 105.38 9.38 110.92 14.51 106.62 11.58 112.64 17.86 114.93"/></svg>