<svg id="圖層_3" data-name="圖層 3" xmlns="http://www.w3.org/2000/svg" viewBox="0 0 232.71 233.26"><defs><style>.cls-1{font-size:27px;font-family:Labrada-SemiBold, Labrada;font-weight:600;}.cls-1,.cls-2{fill:#a28c54;}</style></defs><title>banner_run</title><text class="cls-1" transform="translate(70.76 32.58) rotate(-20.22)">W</text><text class="cls-1" transform="matrix(0.99, -0.13, 0.13, 0.99, 97.67, 23.7)">e</text><text class="cls-1" transform="matrix(1, 0.02, -0.02, 1, 113.73, 22.06)">l</text><text class="cls-1" transform="matrix(0.99, 0.16, -0.16, 0.99, 125.78, 22.43)">c</text><text class="cls-1" transform="matrix(0.94, 0.33, -0.33, 0.94, 140.86, 25.14)">o</text><text class="cls-1" transform="matrix(0.84, 0.54, -0.54, 0.84, 157, 30.59)">m</text><text class="cls-1" transform="translate(179.05 45.88) rotate(45.53)">e</text><text class="cls-1" transform="matrix(0.6, 0.8, -0.8, 0.6, 190.09, 57.8)"> </text><text class="cls-1" transform="matrix(0.47, 0.88, -0.88, 0.47, 195.53, 64.78)">T</text><text class="cls-1" transform="translate(204.51 82.28) rotate(73.69)">h</text><text class="cls-1" transform="matrix(0.1, 1, -1, 0.1, 209.51, 101.02)">e</text><text class="cls-1" transform="translate(210.61 117.23) rotate(91.97)"> </text><text class="cls-1" transform="matrix(-0.22, 0.97, -0.97, -0.22, 210.9, 126)">M</text><text class="cls-1" transform="translate(203.82 152.41) rotate(116.32)">a</text><text class="cls-1" transform="matrix(-0.6, 0.8, -0.8, -0.6, 196.14, 167.33)">g</text><text class="cls-1" transform="matrix(-0.71, 0.7, -0.7, -0.71, 185.36, 181)">i</text><text class="cls-1" transform="translate(177.34 188.82) rotate(143.27)">c</text><text class="cls-1" transform="matrix(-0.87, 0.49, -0.49, -0.87, 164.67, 197.73)"> </text><text class="cls-1" transform="translate(157.13 202.26) rotate(159.89)">O</text><text class="cls-1" transform="translate(136.73 208.99) rotate(170.36)">f</text><text class="cls-1" transform="matrix(-1, 0.05, -0.05, -1, 123.76, 210.86)"> </text><text class="cls-1" transform="matrix(-1, -0.1, 0.1, -1, 114.92, 211.47)">T</text><text class="cls-1" transform="matrix(-0.95, -0.3, 0.3, -0.95, 95.39, 209.21)">h</text><text class="cls-1" transform="translate(77.04 203.06) rotate(-150.99)">u</text><text class="cls-1" transform="translate(60.94 193.58) rotate(-140.96)">r</text><text class="cls-1" transform="translate(50.04 184.47) rotate(-132.27)">s</text><text class="cls-1" transform="matrix(-0.53, -0.85, 0.85, -0.53, 40.1, 173.32)">d</text><text class="cls-1" transform="translate(30.73 157.82) rotate(-111.7)">a</text><text class="cls-1" transform="matrix(-0.2, -0.98, 0.98, -0.2, 24.93, 142.54)">y</text><polygon class="cls-2" points="27.94 117.87 21.27 118.34 22.43 124.93 18.69 119.39 13.56 123.68 16.49 117.67 10.21 115.38 16.88 114.91 15.72 108.32 19.46 113.86 24.59 109.57 21.66 115.58 27.94 117.87"/></svg>