<svg xmlns="http://www.w3.org/2000/svg" viewBox="0 0 50 85.14"><defs><style>.cls-1{fill:#a18b54;}</style></defs><title>tourist_map_icon_資產 16</title><g id="圖層_2" data-name="圖層 2"><g id="圖層_13" data-name="圖層 13"><path class="cls-1" d="M8.38,0A9.41,9.41,0,0,1,12.1,2.67q18,18.09,36.14,36.14c1.48,1.48,2.18,3.16,1.5,5.18a5.47,5.47,0,0,1-1.32,2.07Q29.7,64.84,10.93,83.57A4.65,4.65,0,0,1,4,83.6c-1-1-2-1.92-2.9-3a4.53,4.53,0,0,1,.09-6q.36-.41.75-.78l30.5-30.51a6.74,6.74,0,0,0,1-1,3.64,3.64,0,0,1-.87-.49Q17.1,26.45,1.71,11.05C-.2,9.13-.58,6.49,1,4.7S4.11.86,6.55,0Z"/></g></g></svg>